<?xml version="1.0" encoding="UTF-8"?>
<svg width="770" height="120" version="1.1" viewBox="0 0 203.84 31.75" xmlns="http://www.w3.org/2000/svg" xmlns:cc="http://creativecommons.org/ns#" xmlns:dc="http://purl.org/dc/elements/1.1/" xmlns:rdf="http://www.w3.org/1999/02/22-rdf-syntax-ns#">
 <metadata>
  <rdf:RDF>
   <cc:Work rdf:about="">
    <dc:format>image/svg+xml</dc:format>
    <dc:type rdf:resource="http://purl.org/dc/dcmitype/StillImage"/>
    <dc:title/>
   </cc:Work>
  </rdf:RDF>
 </metadata>
 <path fill="#000C" d="m11.43 0-1.27 6.35h-6.35l-1.27 6.35h6.35l-1.27 6.35h-6.35l-1.27 6.35h6.35l-1.27 6.35h6.35l1.27-6.35h6.35l-1.27 6.35h6.35l1.27-6.35s6.35 0 8.255-9.525c1.905-9.525-4.445-9.525-4.445-9.525l1.27-6.35h-6.35l-1.27 6.35h-6.35l1.27-6.35zm3.81 12.7h9.525s3.175 0 2.54 3.175c-0.63498 3.175-3.81 3.175-3.81 3.175h-9.525zm165.86 18.627h-7.0019l10.669-30.905h8.4204l10.654 30.905h-7.0019l-7.7413-23.843h-0.24144zm-0.43762-12.148h16.539v5.1005h-16.539zm-32.776 12.148v-30.905h12.193q3.5009 0 5.9757 1.2525 2.4899 1.2374 3.7876 3.516 1.3128 2.2635 1.3128 5.3269 0 3.0784-1.3279 5.2967-1.3279 2.2032-3.848 3.3802-2.505 1.177-6.0663 1.177h-8.1638v-5.2514h7.1075q1.8712 0 3.1086-0.51307t1.841-1.5392q0.6187-1.0261 0.6187-2.5502 0-1.5392-0.6187-2.5955-0.60361-1.0563-1.8561-1.5996-1.2374-0.55834-3.1237-0.55834h-4.4064v25.563zm16.69-14.064 7.6809 14.064h-7.2131l-7.5149-14.064zm-20.403-1.3883q0 5.0552-1.9165 8.6014-1.9014 3.5462-5.191 5.4174-3.2746 1.8561-7.364 1.8561-4.1196 0-7.3942-1.8712t-5.176-5.4174-1.9014-8.5863q0-5.0552 1.9014-8.6014t5.176-5.4023q3.2746-1.8712 7.3942-1.8712 4.0895 0 7.364 1.8712 3.2897 1.8561 5.191 5.4023 1.9165 3.5462 1.9165 8.6014zm-6.6246 0q0-3.2746-0.98086-5.523-0.96578-2.2484-2.7313-3.4104-1.7656-1.1619-4.1347-1.1619-2.3692 0-4.1347 1.1619-1.7656 1.1619-2.7464 3.4104-0.96578 2.2484-0.96578 5.523 0 3.2746 0.96578 5.523 0.98086 2.2484 2.7464 3.4104t4.1347 1.1619q2.3692 0 4.1347-1.1619 1.7656-1.1619 2.7313-3.4104 0.98086-2.2484 0.98086-5.523zm-25.353-4.6327h-6.6095q-0.18108-1.2827-0.73942-2.2786-0.55834-1.011-1.4336-1.7203t-2.0221-1.0865q-1.1318-0.37726-2.4597-0.37726-2.3993 0-4.18 1.1921-1.7806 1.177-2.7615 3.4406-0.98086 2.2484-0.98086 5.4627 0 3.3048 0.98086 5.5532 0.99596 2.2484 2.7766 3.3953t4.1196 1.1469q1.3128 0 2.4295-0.34708 1.1318-0.34708 2.007-1.011 0.87523-0.67906 1.4487-1.6448 0.58852-0.96578 0.81487-2.2032l6.6095 0.03018q-0.25654 2.1277-1.2827 4.1045-1.011 1.9617-2.7313 3.516-1.7052 1.5392-4.0744 2.4446-2.3541 0.89032-5.3269 0.89032-4.1347 0-7.3942-1.8712-3.2444-1.8712-5.1307-5.4174-1.8712-3.5462-1.8712-8.5863 0-5.0552 1.9014-8.6014 1.9014-3.5462 5.1609-5.4023 3.2595-1.8712 7.3339-1.8712 2.6861 0 4.9798 0.75451 2.3088 0.75451 4.0894 2.2032 1.7806 1.4336 2.8973 3.516 1.1318 2.0825 1.4487 4.7685zm-32.655-10.82v30.905h-6.5341v-30.905zm-36.008 30.905v-30.905h12.193q3.5009 0 5.9757 1.2525 2.4899 1.2374 3.7876 3.516 1.3128 2.2635 1.3128 5.3269 0 3.0784-1.3279 5.2967-1.3279 2.2032-3.848 3.3802-2.505 1.177-6.0663 1.177h-8.1638v-5.2514h7.1075q1.8712 0 3.1086-0.51307 1.2374-0.51307 1.841-1.5392 0.6187-1.0261 0.6187-2.5502 0-1.5392-0.6187-2.5955-0.60361-1.0563-1.8561-1.5996-1.2374-0.55834-3.1237-0.55834h-4.4063v25.563zm16.69-14.064 7.6809 14.064h-7.2131l-7.5149-14.064z"/>
</svg>
